<svg width="14" height="16" viewBox="0 0 14 16" fill="none" xmlns="http://www.w3.org/2000/svg">
<path fill-rule="evenodd" clip-rule="evenodd" d="M10.8587 4.39496C10.8587 6.77569 8.98168 8.70566 6.66627 8.70566C4.35087 8.70566 2.47387 6.77569 2.47387 4.39496C2.47387 2.01423 4.35087 0.084259 6.66627 0.084259C8.98168 0.084259 10.8587 2.01423 10.8587 4.39496ZM9.40045 4.39496C9.40045 5.94761 8.17632 7.20629 6.66627 7.20629C5.15623 7.20629 3.9321 5.94761 3.9321 4.39496C3.9321 2.84231 5.15623 1.58363 6.66627 1.58363C8.17632 1.58363 9.40045 2.84231 9.40045 4.39496Z" fill="#86878B"/>
<path d="M0.0403491 14.8702C-0.014281 15.0542 0.0855361 15.2467 0.261386 15.3125L0.941781 15.5671C1.14831 15.6444 1.37305 15.5171 1.43751 15.301C2.12355 13.0015 4.20502 11.3296 6.66626 11.3296C9.12751 11.3296 11.209 13.0015 11.895 15.301C11.9595 15.5171 12.1842 15.6444 12.3908 15.5671L13.0712 15.3125C13.247 15.2467 13.3468 15.0542 13.2922 14.8702C12.4261 11.9525 9.78723 9.83019 6.66626 9.83019C3.5453 9.83019 0.906436 11.9525 0.0403491 14.8702Z" fill="#86878B"/>
</svg>
