<svg width="20" height="15" viewBox="0 0 20 15" fill="none" xmlns="http://www.w3.org/2000/svg">
<path fill-rule="evenodd" clip-rule="evenodd" d="M3.02544 2.05126C2.63248 2.05126 2.31392 2.37667 2.31392 2.77809V12.4691C2.31392 12.8705 2.63248 13.1959 3.02544 13.1959H12.5124C12.9054 13.1959 13.2239 12.8705 13.2239 12.4691V2.77809C13.2239 2.37667 12.9054 2.05126 12.5124 2.05126H3.02544ZM0.890869 2.77809C0.890869 1.57384 1.84655 0.59761 3.02544 0.59761H12.5124C13.6913 0.59761 14.647 1.57384 14.647 2.77809V6.18521L17.6418 3.93102C18.2682 3.45954 19.1533 3.9164 19.1533 4.7112V10.536C19.1533 11.3308 18.2682 11.7876 17.6418 11.3162L14.647 9.06198V12.4691C14.647 13.6733 13.6913 14.6496 12.5124 14.6496H3.02544C1.84655 14.6496 0.890869 13.6733 0.890869 12.4691V2.77809ZM15.1349 7.62359L17.7303 9.57707V5.67012L15.1349 7.62359Z" fill="#86878B"/>
</svg>
