<svg width="15" height="18" viewBox="0 0 15 18" fill="none" xmlns="http://www.w3.org/2000/svg">
<path d="M8.37742 12.4277C8.80277 12.1764 9.08895 11.7066 9.08895 11.1685C9.08895 10.3657 8.45183 9.71489 7.6659 9.71489C6.87997 9.71489 6.24285 10.3657 6.24285 11.1685C6.24285 11.7066 6.52903 12.1764 6.95438 12.4277V14.5604C6.95438 14.9618 7.27294 15.2872 7.6659 15.2872C8.05886 15.2872 8.37742 14.9618 8.37742 14.5604V12.4277Z" fill="#86878B"/>
<path fill-rule="evenodd" clip-rule="evenodd" d="M11.6979 6.56531V4.86938C11.6979 2.5947 9.89269 0.750702 7.6659 0.750702C5.43911 0.750702 3.63394 2.5947 3.63394 4.86938V6.56531H3.39676C1.95589 6.56531 0.787842 7.75848 0.787842 9.23034V15.0449C0.787842 16.5168 1.95589 17.71 3.39676 17.71H11.935C13.3759 17.71 14.544 16.5168 14.544 15.0449V9.23034C14.544 7.75848 13.3759 6.56531 11.935 6.56531H11.6979ZM7.6659 2.20435C6.22503 2.20435 5.05698 3.39753 5.05698 4.86938V6.56531H10.2748V4.86938C10.2748 3.39753 9.10677 2.20435 7.6659 2.20435ZM3.39676 8.01896C2.74182 8.01896 2.21089 8.56131 2.21089 9.23034V15.0449C2.21089 15.714 2.74182 16.2563 3.39676 16.2563H11.935C12.59 16.2563 13.1209 15.714 13.1209 15.0449V9.23034C13.1209 8.56131 12.59 8.01896 11.935 8.01896H3.39676Z" fill="#86878B"/>
</svg>
