<svg width="16" height="16" viewBox="0 0 16 16" fill="none" xmlns="http://www.w3.org/2000/svg">
<path fill-rule="evenodd" clip-rule="evenodd" d="M0.551025 1.62436C0.551025 1.02278 1.02983 0.535095 1.62047 0.535095H6.16559C6.75623 0.535095 7.23503 1.02278 7.23503 1.62436V6.25376C7.23503 6.85535 6.75623 7.34303 6.16559 7.34303H1.62047C1.02983 7.34303 0.551025 6.85535 0.551025 6.25376V1.62436ZM1.88783 5.98144V1.89668H5.89823V5.98144H1.88783Z" fill="#86878B"/>
<path fill-rule="evenodd" clip-rule="evenodd" d="M0.551025 9.79389C0.551025 9.1923 1.02983 8.70461 1.62047 8.70461H6.16559C6.75623 8.70461 7.23503 9.1923 7.23503 9.79389V14.4233C7.23503 15.0249 6.75623 15.5125 6.16559 15.5125H1.62047C1.02983 15.5125 0.551025 15.0249 0.551025 14.4233V9.79389ZM1.88783 14.151V10.0662H5.89823V14.151H1.88783Z" fill="#86878B"/>
<path fill-rule="evenodd" clip-rule="evenodd" d="M9.64128 0.535095C9.05064 0.535095 8.57183 1.02278 8.57183 1.62436V6.25376C8.57183 6.85535 9.05064 7.34303 9.64128 7.34303H14.1864C14.777 7.34303 15.2558 6.85535 15.2558 6.25376V1.62436C15.2558 1.02278 14.777 0.535095 14.1864 0.535095H9.64128ZM9.90864 1.89668V5.98144H13.919V1.89668H9.90864Z" fill="#86878B"/>
<path d="M9.46478 8.74823C9.83392 8.74823 10.1332 9.05303 10.1332 9.42902V14.8754C10.1332 15.2514 9.83392 15.5562 9.46478 15.5562C9.09563 15.5562 8.79638 15.2514 8.79638 14.8754V9.42902C8.79638 9.05303 9.09563 8.74823 9.46478 8.74823Z" fill="#86878B"/>
<path d="M14.2773 8.74823C14.6464 8.74823 14.9457 9.05303 14.9457 9.42902V14.8754C14.9457 15.2514 14.6464 15.5562 14.2773 15.5562C13.9081 15.5562 13.6089 15.2514 13.6089 14.8754V9.42902C13.6089 9.05303 13.9081 8.74823 14.2773 8.74823Z" fill="#86878B"/>
<path d="M11.871 8.74823C12.2402 8.74823 12.5394 9.05303 12.5394 9.42902V14.8754C12.5394 15.2514 12.2402 15.5562 11.871 15.5562C11.5019 15.5562 11.2026 15.2514 11.2026 14.8754V9.42902C11.2026 9.05303 11.5019 8.74823 11.871 8.74823Z" fill="#86878B"/>
</svg>
