<svg width="17" height="16" viewBox="0 0 17 16" fill="none" xmlns="http://www.w3.org/2000/svg">
<path fill-rule="evenodd" clip-rule="evenodd" d="M8.71043 4.92624C4.06905 5.60355 0.810448 10.2359 0.0880736 14.3457C0.0809137 14.3865 0.0740029 14.4272 0.0673424 14.4678C-0.076492 15.3452 0.910527 15.7522 1.57456 15.1767C3.67462 13.3564 5.37915 12.5953 7.12073 12.3409C7.6434 12.2645 8.16941 12.2338 8.71044 12.2338L8.71043 15.1453C8.71043 15.8686 9.56661 16.2309 10.0673 15.7194L16.5073 9.14096C16.8126 8.82907 16.8183 8.32524 16.5202 8.00619L10.0802 1.11446C9.58512 0.584598 8.71043 0.942587 8.71043 1.6751V4.92624ZM10.3001 3.70164V5.63044C10.3001 6.0345 10.0093 6.37708 9.61769 6.43423L8.93525 6.53382C6.71039 6.85849 4.77707 8.34028 3.41233 10.364C2.92035 11.0935 2.52187 11.8651 2.22017 12.6367C2.81139 12.2323 3.39075 11.8971 3.96735 11.6236C5.61503 10.8422 7.14623 10.6099 8.71044 10.6099H9.5053C9.94429 10.6099 10.3002 10.9734 10.3002 11.4219L10.3002 13.185L14.8341 8.55362L10.3001 3.70164Z" fill="#86878B"/>
</svg>
