<svg width="17" height="17" viewBox="0 0 17 17" fill="none" xmlns="http://www.w3.org/2000/svg">
<path fill-rule="evenodd" clip-rule="evenodd" d="M0.8396 2.44453C0.8396 1.3741 1.68909 0.506332 2.737 0.506332H12.4611C13.5091 0.506332 14.3585 1.3741 14.3585 2.44453V3.41364C15.4064 3.41364 16.2559 4.2814 16.2559 5.35184V14.0737C16.2559 15.1442 15.4064 16.012 14.3585 16.012H2.737C1.68909 16.012 0.8396 15.1442 0.8396 14.0737V2.44453ZM12.9355 3.41364V2.44453C12.9355 2.17692 12.7231 1.95998 12.4611 1.95998H2.737C2.47502 1.95998 2.26265 2.17692 2.26265 2.44453V3.41364H12.9355ZM2.26265 4.86729V14.0737C2.26265 14.3414 2.47502 14.5583 2.737 14.5583H14.3585C14.6205 14.5583 14.8329 14.3414 14.8329 14.0737V12.1355H12.4611C11.1513 12.1355 10.0894 11.0508 10.0894 9.71279C10.0894 8.37474 11.1513 7.29004 12.4611 7.29004H14.8329V5.35184C14.8329 5.08423 14.6205 4.86729 14.3585 4.86729H2.26265ZM14.8329 8.74369H12.4611C11.9372 8.74369 11.5125 9.17757 11.5125 9.71279C11.5125 10.248 11.9372 10.6819 12.4611 10.6819H14.8329V8.74369Z" fill="#86878B"/>
</svg>
