<svg width="7" height="12" viewBox="0 0 7 12" fill="none" xmlns="http://www.w3.org/2000/svg">
<path d="M6.256 11.04H0.048V9.984C0.048 9.184 0.144 8.512 0.336 7.968C0.538667 7.424 0.805333 6.976 1.136 6.624C1.47733 6.26133 1.856 5.97333 2.272 5.76L3.312 5.232C3.80267 4.976 4.192 4.70933 4.48 4.432C4.77867 4.15467 4.928 3.75467 4.928 3.232V2.96C4.928 2.36267 4.75733 1.93067 4.416 1.664C4.08533 1.39733 3.59467 1.264 2.944 1.264C2.58133 1.264 2.19733 1.312 1.792 1.408C1.38667 1.49333 0.938667 1.64267 0.448 1.856L0 0.688001C0.533333 0.442667 1.04533 0.266667 1.536 0.160001C2.03733 0.0533336 2.51733 0 2.976 0C4.16 0 5.008 0.277334 5.52 0.832001C6.032 1.376 6.288 2.08533 6.288 2.96V3.232C6.288 3.808 6.176 4.288 5.952 4.672C5.73867 5.056 5.45067 5.38133 5.088 5.648C4.736 5.904 4.35733 6.13333 3.952 6.336L2.912 6.88C2.41067 7.14667 2.03733 7.51467 1.792 7.984C1.55733 8.45333 1.42933 9.05067 1.408 9.776H6.256V11.04Z" fill="black"/>
</svg>
